<svg id="Layer_1" data-name="Layer 1" xmlns="http://www.w3.org/2000/svg" viewBox="0 0 90 90"><g id="Group_6283" data-name="Group 6283"><path d="M61,14.42,47.24.64a2.15,2.15,0,0,0-.71-.47A2.21,2.21,0,0,0,45.69,0a2,2,0,0,0-.79.16l-.1,0a2.24,2.24,0,0,0-.67.46L30.35,14.43a2.19,2.19,0,0,0,0,3.1,2.19,2.19,0,0,0,3.07,0l10-10V46.27c.45.47.9.94,1.33,1.43a26,26,0,0,1,3.07-3.4V7.52l10,10A2.2,2.2,0,0,0,61,14.42Z" style="fill:#f1a800"/><path d="M15.27,44.68c6.13.07,11.36,1.16,15.54,3.24a21.55,21.55,0,0,1,9.45,8.94,30.47,30.47,0,0,1,1.24-3.47h0c.21-.5.45-1,.72-1.54A25.37,25.37,0,0,0,38.75,48a27.82,27.82,0,0,0-9.7-5.57,42,42,0,0,0-11.93-2.08l-2.33-.07,9.05-9a2.21,2.21,0,0,0,.05-3.12,2.17,2.17,0,0,0-1.55-.66h0a2.21,2.21,0,0,0-1.54.62L6.94,41.9a2.21,2.21,0,0,0,0,3.12L20.72,58.8a2.2,2.2,0,0,0,3.11-3.12l-11-11Z" style="fill:#0f8de8"/><path d="M83.06,45a2.22,2.22,0,0,0,0-3.12L69.26,28.11a2.21,2.21,0,0,0-1.55-.67h0a2.16,2.16,0,0,0-1.53.63,2.21,2.21,0,0,0-.67,1.55,2.18,2.18,0,0,0,.63,1.56l9.08,9.08-2.33.07a32,32,0,0,0-15.8,4.75,26.77,26.77,0,0,0-7.86,7.79,36.88,36.88,0,0,0-5.71,18.68V87.8A2.2,2.2,0,0,0,45.68,90h0a2.19,2.19,0,0,0,2.17-1.86c0-.14,0-.25,0-.36V71.56h0a7.82,7.82,0,0,1,0-.82A33.28,33.28,0,0,1,51.4,57.8a23.28,23.28,0,0,1,8.05-9c4.15-2.65,9.14-4,15.27-4.09l2.48,0-11,11a2.19,2.19,0,0,0,0,3.1,2.19,2.19,0,0,0,3.07,0Z" style="fill:#0f8de8"/></g></svg>