<?xml version="1.0" encoding="utf-8"?>
<!-- Generator: Adobe Illustrator 25.0.0, SVG Export Plug-In . SVG Version: 6.00 Build 0)  -->
<svg version="1.1" id="Layer_1" xmlns="http://www.w3.org/2000/svg" xmlns:xlink="http://www.w3.org/1999/xlink" x="0px" y="0px"
	 viewBox="0 0 70 70" style="enable-background:new 0 0 70 70;" xml:space="preserve">
<style type="text/css">
	.st0{fill:#0F8DE8;}
	.st1{fill:none;stroke:#0F8DE8;stroke-width:3;stroke-miterlimit:10;}
</style>
<g>
	<path id="Path_7611" class="st0" d="M70.2,22.5c0-0.6-0.4-1.2-1-1.5l-13.7-5.5c-0.8-0.3-1.7,0.1-2.1,0.9c-0.3,0.8,0.1,1.7,0.9,2.1
		l0,0L67,23.6v3.7l-3.6-1.5c-0.8-0.3-1.7,0.1-2.1,0.9c-0.3,0.8,0.1,1.7,0.9,2.1l0,0l4.8,1.9v3.7l-3.6-1.5c-0.8-0.3-1.7,0.1-2.1,0.9
		c-0.3,0.8,0.1,1.7,0.9,2.1l4.8,1.9v3.7l-17.6-7.1V6.6c0-0.6-0.4-1.2-1-1.5L35.6-0.1c-0.4-0.2-0.8-0.2-1.2,0L21.5,5.1
		c-0.6,0.2-1,0.8-1,1.5v27.7L3,41.4v-3.7l4.8-1.9c0.8-0.3,1.2-1.3,0.9-2.1s-1.3-1.2-2.1-0.9L3,34.4v-3.7l4.8-1.9
		c0.8-0.3,1.2-1.3,0.9-2.1s-1.3-1.2-2.1-0.9l0,0L3,27.3v-3.7l12.7-5.1c0.8-0.3,1.2-1.3,0.9-2.1s-1.3-1.2-2.1-0.9L0.8,21.1
		c-0.6,0.2-1,0.8-1,1.5V55c0,0.6,0.4,1.2,1,1.5l33.6,13.6c0.4,0.2,0.8,0.2,1.2,0l33.6-13.6c0.6-0.2,1-0.8,1-1.5L70.2,22.5z M23.7,9
		l9.7,3.9v33.8l-9.7-3.9V9z M36.6,12.9L46.3,9v33.8l-9.7,3.9V12.9z M35,3.1l8.6,3.5L35,10.1l-8.6-3.5L35,3.1z M20.5,37.8v6
		c0,0.6,0.4,1.2,1,1.5l12.9,5.2c0.4,0.2,0.8,0.2,1.2,0l12.9-5.2c0.6-0.2,1-0.8,1-1.5v-6l14.9,6L35,55.7L5.6,43.8L20.5,37.8z M3,46.2
		l30.4,12.3v7.8L3,53.9V46.2z M67,53.9L36.6,66.3v-7.8L67,46.2V53.9z"/>
</g>
</svg>
