<?xml version="1.0" encoding="utf-8"?>
<!-- Generator: Adobe Illustrator 25.0.1, SVG Export Plug-In . SVG Version: 6.00 Build 0)  -->
<svg version="1.0" id="Layer_1" xmlns="http://www.w3.org/2000/svg" xmlns:xlink="http://www.w3.org/1999/xlink" x="0px" y="0px"
	 viewBox="0 0 70 70" style="enable-background:new 0 0 70 70;" xml:space="preserve">
<style type="text/css">
	.st0{fill:#0F8DE8;}
</style>
<g>
	<path class="st0" d="M10.9,67.5c-0.5,0-1-0.2-1.3-0.5l-8-8c-0.3-0.3-0.8-1-0.3-2.3s2.5-3.3,4.1-3.5l11.9-11.9l2.1-0.3l17.8-17.8
		l-0.2-0.2l-0.1-3.2l2.1-2.1c0-1.1-0.6-2.5-1.8-4.1c-2.1-2.8-5.5-5-7.8-5.1c-1.6-0.1-2.8-1.1-2.9-2.5c-0.1-1.2,0.6-2.3,1.9-2.7
		c1.1-0.4,2.5-0.6,4-0.6c3.6,0,10.9,1.2,18.9,9.3l8.5,8.5l-0.6,0.9c-1,1.4-0.9,3.2,0.2,4.3c1.1,1.1,3.1,1.1,4.5,0.1l0.9-0.7l4.1,4.1
		l0.1,3.2l-10,10l-3.2-0.1L51.5,38l0.8-1c1.2-1.4,1.3-3.5,0.1-4.7c-1.1-1.1-3.1-1.1-4.5-0.1L47,33l-1.5-1.5l-18,18l-0.3,1.8
		L15.4,63.2c0,0.4-0.2,0.8-0.4,1.2C14.4,65.5,12.5,67.5,10.9,67.5z M3.8,57.4l7.2,7.2c0.5-0.3,1.3-1.1,1.6-1.6l-0.3-0.6l12.3-12.4
		l0.3-1.8l20.5-20.5l1.8,1.8c2.3-1.2,5.2-0.8,7,1c1.9,1.9,2.2,4.9,0.8,7.3l1.7,1.7h1l8.2-8.2v-1l-1.8-1.8c-2.3,1.2-5.2,0.8-7-1
		c-1.8-1.8-2.2-4.5-1.1-6.8l-7-7c-7.3-7.3-13.8-8.4-17-8.4c-1.1,0-2,0.1-2.6,0.3c3.6,0.3,7.5,3.4,9.7,6.1c1.8,2.3,2.6,4.7,2.3,6.6
		l-0.1,0.4l-1.9,1.9v1l1.4,1.4L20.5,43.4l-2.1,0.3L6,56.1l-0.6-0.3C5,56,4.1,56.8,3.8,57.4z"/>
</g>
</svg>
