<?xml version="1.0" encoding="utf-8"?>
<!-- Generator: Adobe Illustrator 25.0.0, SVG Export Plug-In . SVG Version: 6.00 Build 0)  -->
<svg version="1.1" id="Layer_1" xmlns="http://www.w3.org/2000/svg" xmlns:xlink="http://www.w3.org/1999/xlink" x="0px" y="0px"
	 viewBox="0 0 70 70" style="enable-background:new 0 0 70 70;" xml:space="preserve">
<style type="text/css">
	.st0{fill:#0F8DE8;}
	.st1{fill:none;stroke:#0F8DE8;stroke-width:3;stroke-miterlimit:10;}
</style>
<g id="Group_6171" transform="translate(-629.423 -622.735)">
	<path id="Path_5665" class="st0" d="M696.8,648.4c0.8,0,1.5-0.7,1.5-1.5c0-0.8-0.7-1.5-1.5-1.5h-12.4v-9.3h12.4
		c0.8,0,1.5-0.7,1.5-1.5c0-0.8-0.7-1.5-1.5-1.5h-12.4v-7.6c0-0.8-0.7-1.5-1.5-1.5c-0.8,0-1.5,0.7-1.5,1.5v7.6H666v-7.6
		c0-0.8-0.7-1.5-1.5-1.5c-0.8,0-1.5,0.7-1.5,1.5v7.6h-15.4v-7.6c0-0.8-0.7-1.5-1.5-1.5c-0.8,0-1.5,0.7-1.5,1.5v7.6h-12.4
		c-0.8,0-1.5,0.7-1.5,1.5c0,0.8,0.7,1.5,1.5,1.5h12.4v9.3h-12.4c-0.8,0-1.5,0.7-1.5,1.5c0,0.8,0.7,1.5,1.5,1.5h12.4v4.7
		c-5.1,0.3-9.9,2.5-13.5,6c-0.3,0.3-0.4,0.6-0.4,1v30c0,0.8,0.7,1.5,1.5,1.5h64.7c0.8,0,1.5-0.7,1.5-1.5v-30c0-0.8-0.7-1.5-1.5-1.5
		c-0.4,0-0.8,0.2-1.1,0.5c-3.1,2.8-7.1,4.6-11.3,5v-15.6H696.8z M666,636.1h15.4v9.3H666L666,636.1z M681.3,648.4v15.8
		c-5.4-0.3-10.7-1.9-15.4-4.8v-11H681.3z M647.5,636.1h15.4v9.3h-15.4L647.5,636.1z M662.9,648.4v9.2c-4.7-2.7-10-4.3-15.4-4.6v-4.6
		L662.9,648.4z M695.2,688.5h-61.6v-27.8c3.6-3.1,8.2-4.8,13-4.7c5.2,0,10.8,1.8,16.7,5.4c6.3,3.9,12.6,5.8,18.5,5.8
		c4.8,0,9.5-1.3,13.4-4V688.5z"/>
	<circle id="Ellipse_9" class="st0" cx="644.5" cy="664.8" r="3.1"/>
	<circle id="Ellipse_10" class="st0" cx="648.4" cy="679" r="3.1"/>
	<circle id="Ellipse_11" class="st0" cx="659.6" cy="670.1" r="3.1"/>
	<circle id="Ellipse_12" class="st0" cx="671.3" cy="679" r="3.1"/>
	<circle id="Ellipse_13" class="st0" cx="685" cy="675.5" r="3.1"/>
</g>
</svg>
