<?xml version="1.0" encoding="utf-8"?>
<!-- Generator: Adobe Illustrator 25.0.1, SVG Export Plug-In . SVG Version: 6.00 Build 0)  -->
<svg version="1.0" id="Layer_1" xmlns="http://www.w3.org/2000/svg" xmlns:xlink="http://www.w3.org/1999/xlink" x="0px" y="0px"
	 viewBox="0 0 70 70" style="enable-background:new 0 0 70 70;" xml:space="preserve">
<style type="text/css">
	.st0{fill:#0F8DE8;}
</style>
<g>
	<path class="st0" d="M68.3,49.5H59V22.3c0-0.9-0.7-1.6-1.6-1.6c-0.9,0-1.6,0.7-1.6,1.6v19.4H14.2V22.3c0-0.9-0.7-1.6-1.6-1.6
		c-0.9,0-1.6,0.7-1.6,1.6v27.2H1.7c-0.9,0-1.6,0.7-1.6,1.6v16.2c0,0.9,0.7,1.6,1.6,1.6h66.6c0.9,0,1.6-0.7,1.6-1.6V51.1
		C69.9,50.2,69.1,49.5,68.3,49.5z M55.8,44.9v12.4H14.2V44.9H55.8z M66.7,65.7H3.3V52.6H11v6.2c0,0.9,0.7,1.6,1.6,1.6h44.8
		c0.9,0,1.6-0.7,1.6-1.6v-6.2h7.7V65.7z"/>
	<path class="st0" d="M2.6,18.5L35,2.5l32.4,16.1c0.2,0.1,0.5,0.2,0.7,0.2c0.6,0,1.1-0.3,1.4-0.9c0.4-0.8,0.1-1.7-0.7-2.1L35.7-0.7
		c-0.4-0.2-1-0.2-1.4,0L1.2,15.7c-0.8,0.4-1.1,1.3-0.7,2.1C0.8,18.6,1.8,18.9,2.6,18.5z"/>
	<path class="st0" d="M29.5,20.7c-0.9,0-1.6,0.7-1.6,1.6v12.9c0,0.9,0.7,1.6,1.6,1.6h11c0.9,0,1.6-0.7,1.6-1.6V22.3
		c0-0.9-0.7-1.6-1.6-1.6L29.5,20.7z M38.9,33.6H31v-9.7h7.9V33.6z"/>
	<path class="st0" d="M21.4,52.6h3.3c0.9,0,1.6-0.7,1.6-1.6c0-0.9-0.7-1.6-1.6-1.6h-3.3c-0.9,0-1.6,0.7-1.6,1.6
		C19.8,51.9,20.5,52.6,21.4,52.6z"/>
	<path class="st0" d="M33.3,52.6h3.3c0.9,0,1.6-0.7,1.6-1.6c0-0.9-0.7-1.6-1.6-1.6h-3.3c-0.9,0-1.6,0.7-1.6,1.6
		C31.8,51.9,32.5,52.6,33.3,52.6z"/>
	<path class="st0" d="M45.3,52.6h3.3c0.9,0,1.6-0.7,1.6-1.6c0-0.9-0.7-1.6-1.6-1.6h-3.3c-0.9,0-1.6,0.7-1.6,1.6
		C43.7,51.9,44.4,52.6,45.3,52.6z"/>
</g>
</svg>
