<?xml version="1.0" encoding="utf-8"?>
<!-- Generator: Adobe Illustrator 25.0.0, SVG Export Plug-In . SVG Version: 6.00 Build 0)  -->
<svg version="1.1" id="Layer_1" xmlns="http://www.w3.org/2000/svg" xmlns:xlink="http://www.w3.org/1999/xlink" x="0px" y="0px"
	 viewBox="0 0 70 70" style="enable-background:new 0 0 70 70;" xml:space="preserve">
<style type="text/css">
	.st0{fill:#0F8DE8;}
</style>
<g>
	<path id="Path_7569" class="st0" d="M47.6,39.6c0.2-1.3-0.6-2.5-1.9-2.9h-0.1v-5.8c1-0.2,1.8-1,2-2c0.2-1.3-0.6-2.5-1.9-2.9h-0.1
		v-5.8c1-0.2,1.8-1,2-2c0.2-1.3-0.6-2.5-1.9-2.9h-0.1V0.1H43v14.2L27,9V0.1h-2.6v5.7c-1,0.2-1.8,1-2,2c-0.2,1.3,0.6,2.5,1.9,2.9h0.1
		v5.8c-1,0.2-1.8,1-2,2c-0.2,1.3,0.6,2.5,1.9,2.9h0.1v5.8c-1,0.2-1.8,1-2,2c-0.2,1.3,0.6,2.5,1.9,2.9h0.1v5.8c-1,0.2-1.8,1-2,2
		c-0.2,1.3,0.6,2.5,1.9,2.9h0.1v8c0,0.3,0.1,0.6,0.3,0.8L34,63.4c0.4,0.5,1.2,0.6,1.8,0.2c0.1-0.1,0.1-0.1,0.2-0.2l8.8-10.8
		c2.1-0.3,2.7-1.4,2.8-2.2c0.2-1.3-0.6-2.5-1.9-2.9h-0.1v-5.8C46.6,41.4,47.4,40.6,47.6,39.6z M43,17v8.1l-16-5.4v-8.1L43,17z
		 M43,27.8v8.1l-16-5.4v-8.1L43,27.8z M35,60.6l-8-9.9v-6.8l16,5.4v1.4L35,60.6z M27,41.2v-8.1l16,5.4v8.1L27,41.2z"/>
	<path id="Path_7570" class="st0" d="M51.6,40.6c0,0.3-0.1,0.6-0.3,0.8c-1.4,1.6-2.2,3.8-2.2,6v0.8c0,3.7-1.3,7.3-3.6,10.1L40,65
		c-2.2,2.7-6.3,3.1-9,0.9c-0.3-0.3-0.6-0.6-0.9-0.9l-5.5-6.7c-2.3-2.9-3.6-6.4-3.6-10.1v-0.8c0-2.2-0.8-4.3-2.2-6
		c-0.2-0.2-0.3-0.5-0.3-0.8c0-3.3-2.7-6.1-6.1-6.1H0v2.6h12.4c1.9,0,3.5,1.6,3.5,3.5c0,0.9,0.3,1.8,0.9,2.5c1,1.2,1.6,2.7,1.6,4.3
		v0.8c0,4.3,1.5,8.4,4.2,11.7l5.5,6.7c3.1,3.8,8.8,4.4,12.6,1.2c0.4-0.4,0.9-0.8,1.2-1.2l5.5-6.7c2.7-3.3,4.2-7.5,4.2-11.7v-0.8
		c0-1.6,0.6-3.1,1.6-4.3c0.6-0.7,0.9-1.6,0.9-2.5c0-1.9,1.6-3.5,3.5-3.5H70v-2.6H57.6C54.3,34.6,51.6,37.3,51.6,40.6z"/>
</g>
</svg>
