<svg id="Layer_1" data-name="Layer 1" xmlns="http://www.w3.org/2000/svg" viewBox="0 0 90 90"><path d="M88.76,83.26,61.89,56.39a4.14,4.14,0,0,0-4.16-1l-.67.21-6-6,.69-.81A29.38,29.38,0,0,0,29.39.3h-.08A29.47,29.47,0,0,0,8.58,8.91h0A29.38,29.38,0,0,0,29.3,59.07h.08a29.32,29.32,0,0,0,19-7l.81-.69,6,6-.21.67a4.13,4.13,0,0,0,1,4.16L82.92,89.1a4.13,4.13,0,1,0,5.84-5.84ZM47.2,47.54a25.31,25.31,0,0,1-17.81,7.39h-.07a25.25,25.25,0,0,1,0-50.49H30A25.24,25.24,0,0,1,47.2,47.54Z" style="fill:#0f8de8"/><polygon points="7.76 8.09 7.76 8.09 7.76 8.09 7.76 8.09" style="fill:#0f8de8"/></svg>