<?xml version="1.0" encoding="utf-8"?>
<!-- Generator: Adobe Illustrator 25.0.0, SVG Export Plug-In . SVG Version: 6.00 Build 0)  -->
<svg version="1.1" id="Layer_1" xmlns="http://www.w3.org/2000/svg" xmlns:xlink="http://www.w3.org/1999/xlink" x="0px" y="0px"
	 viewBox="0 0 70 70" style="enable-background:new 0 0 70 70;" xml:space="preserve">
<style type="text/css">
	.st0{fill:#0F8DE8;}
	.st1{fill:none;stroke:#0F8DE8;stroke-width:3;stroke-miterlimit:10;}
</style>
<g id="Group_6159_1_" transform="translate(-1013.915 -2077.97)">
	<g id="Group_3292_1_" transform="translate(1031.493 2099.936)">
		<path id="Path_5655_1_" class="st0" d="M12.3,13H1V1.7h11.3V13z M3.8,10.2h5.7V4.5H3.8V10.2z"/>
	</g>
	<g id="Group_3293_1_" transform="translate(1021.501 2108.182)">
		
			<rect id="Rectangle_2313_1_" x="-0.5" y="6.7" transform="matrix(0.7071 -0.7071 0.7071 0.7071 -3.7438 7.2091)" class="st0" width="14.6" height="2.8"/>
	</g>
	<g id="Group_3294_1_" transform="translate(1039.838 2108.182)">
		
			<rect id="Rectangle_2314_1_" x="6" y="0.8" transform="matrix(0.7071 -0.7071 0.7071 0.7071 -3.5726 7.6223)" class="st0" width="2.8" height="14.6"/>
	</g>
	<g id="Group_3295_1_" transform="translate(1015.019 2117.782)">
		<rect id="Rectangle_2315_1_" x="0.5" y="2.3" class="st0" width="45.3" height="2.8"/>
	</g>
	<g id="Group_3296_1_" transform="translate(1035.612 2090.326)">
		<rect id="Rectangle_2316_1_" x="1.1" y="1.4" class="st0" width="2.8" height="11.3"/>
	</g>
	<g id="Group_3297_1_" transform="translate(1061.696 2078.326)">
		<path id="Path_5656_1_" class="st0" d="M21.8,68.6h-2.8V5.9L4.8,14.2v54.4H2V12.6L21.8,1L21.8,68.6z"/>
	</g>
	<g id="Group_3300_1_" transform="translate(1062.245 2129.038)">
		<g id="Group_3298_1_" transform="translate(0.001 0)">
			
				<rect id="Rectangle_2317_1_" x="0.7" y="8.7" transform="matrix(0.8 -0.6 0.6 0.8 -3.8194 8.8183)" class="st0" width="21.2" height="2.8"/>
		</g>
		<g id="Group_3299_1_" transform="translate(0 0.001)">
			
				<rect id="Rectangle_2318_1_" x="9.9" y="-0.5" transform="matrix(0.6 -0.8 0.8 0.6 -3.5809 13.1081)" class="st0" width="2.8" height="21.2"/>
		</g>
	</g>
	<g id="Group_3303_1_" transform="translate(1062.245 2116.683)">
		<g id="Group_3301_1_" transform="translate(0.001 0)">
			
				<rect id="Rectangle_2319_1_" x="0.7" y="8.3" transform="matrix(0.8 -0.6 0.6 0.8 -3.583 8.7394)" class="st0" width="21.2" height="2.8"/>
		</g>
		<g id="Group_3302_1_" transform="translate(0 0.001)">
			
				<rect id="Rectangle_2320_1_" x="9.9" y="-0.9" transform="matrix(0.6 -0.8 0.8 0.6 -3.2657 12.9505)" class="st0" width="2.8" height="21.2"/>
		</g>
	</g>
	<g id="Group_3306_1_" transform="translate(1062.245 2104.327)">
		<g id="Group_3304_1_" transform="translate(0.001 0)">
			
				<rect id="Rectangle_2321_1_" x="0.7" y="7.9" transform="matrix(0.8 -0.6 0.6 0.8 -3.3465 8.6606)" class="st0" width="21.2" height="2.8"/>
		</g>
		<g id="Group_3305_1_" transform="translate(0 0.002)">
			
				<rect id="Rectangle_2322_1_" x="9.9" y="-1.3" transform="matrix(0.6 -0.8 0.8 0.6 -2.9504 12.7928)" class="st0" width="2.8" height="21.2"/>
		</g>
	</g>
	<g id="Group_3309_1_" transform="translate(1062.245 2091.972)">
		<g id="Group_3307_1_" transform="translate(0.001 0)">
			
				<rect id="Rectangle_2323_1_" x="0.7" y="7.5" transform="matrix(0.8 -0.6 0.6 0.8 -3.11 8.5818)" class="st0" width="21.2" height="2.8"/>
		</g>
		<g id="Group_3308_1_" transform="translate(0 0.001)">
			
				<rect id="Rectangle_2324_1_" x="9.9" y="-1.7" transform="matrix(0.6 -0.8 0.8 0.6 -2.6351 12.6352)" class="st0" width="2.8" height="21.2"/>
		</g>
	</g>
	<g id="Group_3310_1_" transform="translate(1013.915 2077.97)">
		<path id="Path_5657_1_" class="st0" d="M51.1,15.2H9.3L0.4,1h69.1v2.8h-64l5.3,8.5h40.3L51.1,15.2z"/>
	</g>
	<g id="Group_3313_1_" transform="translate(1022.397 2078.271)">
		<g id="Group_3311_1_" transform="translate(0 0.002)">
			
				<rect id="Rectangle_2325_1_" x="-0.4" y="6.4" transform="matrix(0.7811 -0.6244 0.6244 0.7811 -2.9593 7.1139)" class="st0" width="18.1" height="2.8"/>
		</g>
		<g id="Group_3312_1_" transform="translate(0.002 0)">
			
				<rect id="Rectangle_2326_1_" x="7.2" y="-1.3" transform="matrix(0.6248 -0.7808 0.7808 0.6248 -2.8249 9.6867)" class="st0" width="2.8" height="18.1"/>
		</g>
	</g>
	<g id="Group_3316_1_" transform="translate(1036.125 2078.271)">
		<g id="Group_3314_1_" transform="translate(0 0.002)">
			
				<rect id="Rectangle_2327_1_" x="0" y="6.4" transform="matrix(0.7813 -0.6242 0.6242 0.7813 -2.8658 7.3843)" class="st0" width="18.1" height="2.8"/>
		</g>
		<g id="Group_3315_1_" transform="translate(0.002 0)">
			
				<rect id="Rectangle_2328_1_" x="7.7" y="-1.3" transform="matrix(0.6247 -0.7809 0.7809 0.6247 -2.6589 10.0282)" class="st0" width="2.8" height="18.1"/>
		</g>
	</g>
	<g id="Group_3319_1_" transform="translate(1049.854 2078.271)">
		<g id="Group_3317_1_" transform="translate(0 0.002)">
			
				<rect id="Rectangle_2329_1_" x="0.5" y="6.4" transform="matrix(0.7811 -0.6244 0.6244 0.7811 -2.7676 7.6607)" class="st0" width="18.1" height="2.8"/>
		</g>
		<g id="Group_3318_1_" transform="translate(0.002 0)">
			
				<rect id="Rectangle_2330_1_" x="8.1" y="-1.3" transform="matrix(0.6248 -0.7808 0.7808 0.6248 -2.4963 10.3706)" class="st0" width="2.8" height="18.1"/>
		</g>
	</g>
	<g id="Group_3320_1_" transform="translate(1015.019 2123.274)">
		<path id="Path_5658_1_" class="st0" d="M45.8,23.7H43V5.3H3.3v18.4H0.5V2.4h45.3L45.8,23.7z"/>
	</g>
	<g id="Group_3321_1_" transform="translate(1023.256 2130.138)">
		<rect id="Rectangle_2331_1_" x="0.7" y="2.7" class="st0" width="2.8" height="2.8"/>
	</g>
	<g id="Group_3322_1_" transform="translate(1031.493 2130.138)">
		<rect id="Rectangle_2332_1_" x="1" y="2.7" class="st0" width="2.8" height="2.8"/>
	</g>
	<g id="Group_3323_1_" transform="translate(1039.73 2130.138)">
		<rect id="Rectangle_2333_1_" x="1.2" y="2.7" class="st0" width="2.8" height="2.8"/>
	</g>
	<g id="Group_3324_1_" transform="translate(1047.967 2130.138)">
		<rect id="Rectangle_2334_1_" x="1.5" y="2.7" class="st0" width="2.8" height="2.8"/>
	</g>
	<g id="Group_3325_1_" transform="translate(1023.256 2135.629)">
		<rect id="Rectangle_2335_1_" x="0.7" y="2.8" class="st0" width="2.8" height="2.8"/>
	</g>
	<g id="Group_3326_1_" transform="translate(1031.493 2135.629)">
		<rect id="Rectangle_2336_1_" x="1" y="2.8" class="st0" width="2.8" height="2.8"/>
	</g>
	<g id="Group_3327_1_" transform="translate(1039.73 2135.629)">
		<rect id="Rectangle_2337_1_" x="1.2" y="2.8" class="st0" width="2.8" height="2.8"/>
	</g>
	<g id="Group_3328_1_" transform="translate(1047.967 2135.629)">
		<rect id="Rectangle_2338_1_" x="1.5" y="2.8" class="st0" width="2.8" height="2.8"/>
	</g>
	<g id="Group_3329_1_" transform="translate(1023.256 2141.121)">
		<rect id="Rectangle_2339_1_" x="0.7" y="3" class="st0" width="2.8" height="2.8"/>
	</g>
	<g id="Group_3330_1_" transform="translate(1031.493 2141.121)">
		<rect id="Rectangle_2340_1_" x="1" y="3" class="st0" width="2.8" height="2.8"/>
	</g>
	<g id="Group_3331_1_" transform="translate(1039.73 2141.121)">
		<rect id="Rectangle_2341_1_" x="1.2" y="3" class="st0" width="2.8" height="2.8"/>
	</g>
	<g id="Group_3332_1_" transform="translate(1047.967 2141.121)">
		<rect id="Rectangle_2342_1_" x="1.5" y="3" class="st0" width="2.8" height="2.8"/>
	</g>
</g>
</svg>
