<svg id="Layer_1" data-name="Layer 1" xmlns="http://www.w3.org/2000/svg" viewBox="0 0 90 90"><g id="Group_6284" data-name="Group 6284"><path d="M49.42,90a4.25,4.25,0,0,1-1.4-.24A4.19,4.19,0,0,1,45.86,88a6.68,6.68,0,0,0-9.13-2.25,6.92,6.92,0,0,0-1.34,1.07,4.17,4.17,0,0,1-7.14-2.37l0-.14a6.63,6.63,0,0,0-7.39-5.6,6.91,6.91,0,0,0-1.68.43,4.16,4.16,0,0,1-5.56-5,6.59,6.59,0,0,0-6.12-8.52,4.18,4.18,0,0,1-2.91-1.32,4.16,4.16,0,0,1-.11-5.56,6.58,6.58,0,0,0,1.61-4.83,6.51,6.51,0,0,0-2.29-4.5,6.31,6.31,0,0,0-1.27-.86l-.16-.07A4.17,4.17,0,0,1,.42,42.85a4.21,4.21,0,0,1,2-1.94,6.56,6.56,0,0,0,3.46-3.78,6.44,6.44,0,0,0-.25-5,6.22,6.22,0,0,0-.88-1.38l0-.06a4.17,4.17,0,0,1,.51-5.87,4.21,4.21,0,0,1,2.59-1h.1a6.61,6.61,0,0,0,6.43-6.74A6.68,6.68,0,0,0,14,15.42a4.16,4.16,0,0,1,.36-3.19,4.09,4.09,0,0,1,2.5-2,4.25,4.25,0,0,1,2.75.15,6.66,6.66,0,0,0,8.73-3.51,7.07,7.07,0,0,0,.44-1.62A4.18,4.18,0,0,1,36,3a6.67,6.67,0,0,0,9.4.31A6.68,6.68,0,0,0,46.47,2,4.2,4.2,0,0,1,52.25.64,4.15,4.15,0,0,1,54,2.79a6.66,6.66,0,0,0,8.45,4.09,6.94,6.94,0,0,0,1.52-.75,4.18,4.18,0,0,1,6.53,3.69v.11A6.5,6.5,0,0,0,72,14.73a6.61,6.61,0,0,0,4.51,2.33A6.91,6.91,0,0,0,78.2,17a4.17,4.17,0,0,1,4.65,5.6v.08l-.24.44a6.57,6.57,0,0,0,2.59,8.95,6.76,6.76,0,0,0,1.59.63,4.16,4.16,0,0,1,1.55,7.37A6.57,6.57,0,0,0,87,49.28a6.92,6.92,0,0,0,1.2,1.22,4.14,4.14,0,0,1,1.6,2.8A4.08,4.08,0,0,1,89,56.37a4.16,4.16,0,0,1-2.34,1.49A6.6,6.6,0,0,0,82.5,60.8a6.51,6.51,0,0,0-.82,5,6.43,6.43,0,0,0,.6,1.6,4.16,4.16,0,0,1-4.46,6.07,6.65,6.65,0,0,0-7.77,5.23,6.51,6.51,0,0,0-.11,1.71v.09a4.17,4.17,0,0,1-3.88,4.37,4.17,4.17,0,0,1-2.69-.74,6.62,6.62,0,0,0-10,3l0,.14A4.17,4.17,0,0,1,49.42,90Zm-9.27-9a10.49,10.49,0,0,1,9,5,.35.35,0,0,0,.19.17.34.34,0,0,0,.42-.16l0-.06A10.65,10.65,0,0,1,51,83.52a10.51,10.51,0,0,1,14.56-2.58h0a.31.31,0,0,0,.23.06A.33.33,0,0,0,66,80.9a.33.33,0,0,0,.08-.24v-.09a10.23,10.23,0,0,1,.17-2.65,10.46,10.46,0,0,1,12.25-8.25.31.31,0,0,0,.23,0,.31.31,0,0,0,.17-.2.29.29,0,0,0,0-.25,10,10,0,0,1-1-2.56,10.42,10.42,0,0,1,7.83-12.51A.3.3,0,0,0,86,54a.31.31,0,0,0,.07-.24.33.33,0,0,0-.12-.22A10.17,10.17,0,0,1,84,51.59,10.38,10.38,0,0,1,86,37a.36.36,0,0,0,.12-.18.32.32,0,0,0,0-.25.3.3,0,0,0-.21-.16,10.72,10.72,0,0,1-2.55-1A10.4,10.4,0,0,1,79,21.7v0l.24-.44a.35.35,0,0,0,0-.22.34.34,0,0,0-.4-.27A10.44,10.44,0,0,1,66.64,9.69v-.1a.3.3,0,0,0,0-.21.35.35,0,0,0-.48-.1,10.44,10.44,0,0,1-2.43,1.22A10.48,10.48,0,0,1,50.36,4.08a.32.32,0,0,0-.15-.2.34.34,0,0,0-.47.11A10.59,10.59,0,0,1,48,6.07a10.49,10.49,0,0,1-14.78-.45A.39.39,0,0,0,33,5.49a.36.36,0,0,0-.39.28,10.62,10.62,0,0,1-.71,2.6A10.49,10.49,0,0,1,18.22,14a.38.38,0,0,0-.27,0,.34.34,0,0,0-.2.16.33.33,0,0,0,0,.25,10.43,10.43,0,0,1,.4,2.65,10.31,10.31,0,0,1-2.89,7.44,10.4,10.4,0,0,1-7.32,3.22h-.1a.42.42,0,0,0-.17.08.37.37,0,0,0-.12.23.35.35,0,0,0,.06.22l0,0a9.9,9.9,0,0,1,1.45,2.26,10.28,10.28,0,0,1,.4,8,10.38,10.38,0,0,1-5.38,5.92.35.35,0,0,0-.21.18A.32.32,0,0,0,4,45L4,45a10.37,10.37,0,0,1,2.25,1.47,10.32,10.32,0,0,1,3.61,7.12,10.33,10.33,0,0,1-2.5,7.58.41.41,0,0,0-.12.24.36.36,0,0,0,.09.24.39.39,0,0,0,.25.11,10.43,10.43,0,0,1,8.87,5.49,10.34,10.34,0,0,1,.8,7.93.31.31,0,0,0,0,.25.34.34,0,0,0,.45.18,10.49,10.49,0,0,1,14.32,8.35V84a.24.24,0,0,0,.09.15.35.35,0,0,0,.49,0A10.44,10.44,0,0,1,40.15,81Z" style="fill:#0f8de8"/><path d="M45,75.05A30.06,30.06,0,1,1,75.18,45,30.15,30.15,0,0,1,45,75.05Zm0-56.28A26.23,26.23,0,1,0,71.35,45,26.32,26.32,0,0,0,45,18.77Z" style="fill:#0f8de8"/><polygon points="43.16 55.92 33.55 46.35 36.26 43.64 42.8 50.16 55.6 33.77 58.62 36.13 43.16 55.92" style="fill:#f1a800"/></g></svg>