<svg id="Layer_1" data-name="Layer 1" xmlns="http://www.w3.org/2000/svg" viewBox="0 0 90 90"><g id="Group_6282" data-name="Group 6282"><g id="Group_6277" data-name="Group 6277"><rect id="Rectangle_2454" data-name="Rectangle 2454" x="33.95" y="7.4" width="2.06" height="2.03" style="fill:#0f8de8"/><path d="M36.6,10H33.36V6.8H36.6ZM34.54,8.84h.88V8h-.88Z" style="fill:#0f8de8"/><rect id="Rectangle_2455" data-name="Rectangle 2455" x="24" y="28.41" width="34.93" height="2.03" style="fill:#f1a800"/><path d="M59.53,31H23.41V27.82H59.53ZM24.59,29.85H58.34V29H24.59Z" style="fill:#f1a800"/><rect id="Rectangle_2456" data-name="Rectangle 2456" x="24" y="57.87" width="13.88" height="2.03" style="fill:#f1a800"/><path d="M38.48,60.5H23.41V57.28H38.48ZM24.59,59.32h12.7v-.85H24.59Z" style="fill:#f1a800"/><rect id="Rectangle_2457" data-name="Rectangle 2457" x="24" y="43.14" width="21.51" height="2.03" style="fill:#f1a800"/><path d="M46.1,45.77H23.41V42.55H46.1ZM24.59,44.58H44.92v-.85H24.59Z" style="fill:#f1a800"/><rect id="Rectangle_2458" data-name="Rectangle 2458" x="24" y="72.88" width="18.45" height="2.03" style="fill:#f1a800"/><path d="M43,75.5H23.41V72.29H43ZM24.59,74.32H41.86v-.85H24.59Z" style="fill:#f1a800"/><path id="Path_7740" data-name="Path 7740" d="M13.09,30.52l-2.65-2.65L9,29.31l4.09,4.09,9.21-9.21-1.44-1.44Z" style="fill:#0f8de8"/><path d="M13.09,34.24,8.16,29.31,10.44,27l2.65,2.64,7.77-7.77,2.28,2.28ZM9.84,29.31l3.25,3.25,8.37-8.37-.6-.61-7.77,7.78-2.65-2.65Z" style="fill:#0f8de8"/><path id="Path_7741" data-name="Path 7741" d="M13.09,45.24l-2.65-2.65L9,44l4.09,4.09L22.3,38.9l-1.44-1.44Z" style="fill:#0f8de8"/><path d="M13.09,49,8.16,44l2.28-2.27,2.65,2.65,7.77-7.78,2.28,2.28ZM9.84,44l3.25,3.26,8.37-8.38-.6-.6-7.77,7.77-2.65-2.65Z" style="fill:#0f8de8"/><path id="Path_7742" data-name="Path 7742" d="M13.09,60,10.44,57.3,9,58.74l4.09,4.08,9.21-9.21-1.44-1.44Z" style="fill:#0f8de8"/><path d="M13.09,63.66,8.16,58.74l2.28-2.28,2.65,2.65,7.77-7.78,2.28,2.28ZM9.84,58.74,13.09,62l8.37-8.38-.6-.6-7.77,7.78-2.65-2.65Z" style="fill:#0f8de8"/><path id="Path_7743" data-name="Path 7743" d="M13.09,74.94l-2.65-2.66L9,73.72l4.09,4.09L22.3,68.6l-1.44-1.44Z" style="fill:#0f8de8"/><path d="M13.09,78.65,8.16,73.72l2.28-2.27,2.65,2.65,7.77-7.78,2.28,2.28ZM9.84,73.72,13.09,77l8.37-8.37-.6-.6-7.77,7.77-2.65-2.65Z" style="fill:#0f8de8"/><path id="Path_7744" data-name="Path 7744" d="M70,51.32a10.66,10.66,0,1,0,5.79,13.92h0a10.61,10.61,0,0,0-5.69-13.88Zm3.91,13.14A8.62,8.62,0,1,1,69.25,53.2h0A8.61,8.61,0,0,1,74,64.42l0,0Z" style="fill:#0f8de8"/><path d="M66,72.43a11.25,11.25,0,1,1,4.28-21.66l0,0a11.26,11.26,0,0,1,0,20.78A11.4,11.4,0,0,1,66,72.43Zm0-21.32a10.07,10.07,0,1,0,3.86,19.36,10.07,10.07,0,0,0,.06-18.56l.13-.59-.23.55A9.9,9.9,0,0,0,66,51.11ZM66,70.4a9.22,9.22,0,0,1-8.51-5.67A9.22,9.22,0,0,1,69.36,52.61h0l.13.06a9.22,9.22,0,0,1,5,12l0,0A9.22,9.22,0,0,1,66,70.4Zm0-17.26a8.15,8.15,0,0,0-3.09.62,8,8,0,1,0,10.5,10.53l0-.1a8,8,0,0,0-4.28-10.4l-.11,0A8,8,0,0,0,66,53.14Z" style="fill:#0f8de8"/><path id="Path_7745" data-name="Path 7745" d="M82,63.16a15.53,15.53,0,0,0,0-4l4.83-2.73L84,49.74l-5.34,1.5a15.28,15.28,0,0,0-2.85-2.83l1.48-5.35-6.67-2.75L68,45.14c-.33,0-.67,0-1-.06V11.79H52.68V7.12H42.46a7.55,7.55,0,0,0-15,0H17.28v4.67H3V89.41H67V77.27c.35,0,.7,0,1-.07L70.73,82l6.68-2.78L75.9,73.91a15.38,15.38,0,0,0,2.85-2.85l5.34,1.49,2.75-6.67Zm-62.69-54H29.46v-1a5.52,5.52,0,0,1,11,0v1H50.64V15.4H19.31Zm45.6,78.21H5V13.82H17.28v3.62h35.4V13.82H64.91V45.09c-.33,0-.66,0-1,.07L61.2,40.33l-6.67,2.76L56,48.43a15.75,15.75,0,0,0-2.85,2.86l-5.34-1.48-2.75,6.67,4.84,2.7a15.53,15.53,0,0,0,0,4l-4.83,2.73,2.78,6.67,5.34-1.5A15.58,15.58,0,0,0,56.07,74l-1.48,5.34L61.26,82,64,77.2c.31,0,.62,0,.92,0Zm18-17.27-5-1.39a14.83,14.83,0,0,1-4.37,4.38l1.41,5-3.34,1.39L69.08,75a14.59,14.59,0,0,1-6.17,0l-2.53,4.51L57,78.11l1.38-5a14.28,14.28,0,0,1-4.36-4.36l-5,1.4-1.39-3.34,4.5-2.54a14.47,14.47,0,0,1,0-6.18l-4.5-2.52L49,52.25l5,1.38a14.42,14.42,0,0,1,4.36-4.37l-1.4-5,3.34-1.38,2.54,4.51a14.27,14.27,0,0,1,6.17,0l2.52-4.5,3.34,1.37-1.38,5a14.06,14.06,0,0,1,4.36,4.36l5-1.41,1.39,3.33-4.5,2.54a14.36,14.36,0,0,1,0,6.19l4.51,2.53Z" style="fill:#0f8de8"/><path d="M67.54,90H2.42V11.2H16.69V6.53H27A8.17,8.17,0,0,1,33.87.08,8.14,8.14,0,0,1,43,6.53H53.27V11.2H67.54V44.51h.08l2.78-5L78,42.71l-1.51,5.48a15.37,15.37,0,0,1,2.39,2.38L84.38,49l3.19,7.62-4.94,2.8a16.7,16.7,0,0,1,0,3.39l4.94,2.78-3.15,7.64L79,71.73a16,16,0,0,1-2.39,2.4l1.54,5.47-7.64,3.18-2.8-5h-.14ZM3.6,88.82H66.35V76.71l.9,0c.23,0,.45,0,.68,0l.39,0L71,81.28l5.7-2.37-1.47-5.22.32-.25a14.81,14.81,0,0,0,2.74-2.74l.24-.32,5.22,1.46,2.35-5.7-4.73-2.66.06-.39a14.9,14.9,0,0,0,0-3.89l-.05-.39,4.72-2.67-2.38-5.69-5.21,1.47-.25-.32a14.7,14.7,0,0,0-2.74-2.72l-.32-.24,1.45-5.24-5.7-2.35-2.65,4.73-.4-.05c-.2,0-.41,0-.62,0l-.9,0V12.38H52.09V7.71H41.94l-.07-.51a7,7,0,0,0-13.79,0L28,7.71H17.87v4.67H3.6ZM65.5,88h-61V13.23H17.87v3.61H52.09V13.23H65.5V45.64l-.89.06-.61,0-.39.06-2.67-4.73-5.7,2.37,1.47,5.22-.32.24a15.18,15.18,0,0,0-2.74,2.75l-.24.32-5.22-1.45-2.35,5.7,4.73,2.64,0,.39a14.82,14.82,0,0,0,0,3.88l0,.4L45.86,66.2l2.37,5.7,5.22-1.47.25.32a14.7,14.7,0,0,0,2.73,2.73l.32.24L55.3,79,61,81.29l2.66-4.73.4,0,.54,0,.9,0ZM5.64,86.78H64.32v-9h0l-2.79,5-7.64-3.15,1.52-5.47A15.88,15.88,0,0,1,53,71.78l-5.47,1.54-3.18-7.64,5-2.79a15.37,15.37,0,0,1,0-3.39l-5-2.76,3.15-7.64L53,50.61a16.43,16.43,0,0,1,2.39-2.4l-1.54-5.46,7.64-3.17,2.8,5h.07V14.42h-11V18H16.69V14.42h-11Zm55-6.55-4.31-1.78,1.4-5.06a15,15,0,0,1-3.92-3.94l-5.07,1.43-1.8-4.31L51.52,64a14.91,14.91,0,0,1,0-5.57l-4.59-2.56,1.77-4.31L53.76,53a15,15,0,0,1,3.94-4l-1.43-5.07,4.3-1.78,2.59,4.59a15.07,15.07,0,0,1,5.56,0l2.57-4.58,4.31,1.78L74.19,49a15,15,0,0,1,3.94,3.93l5.07-1.43,1.8,4.3-4.59,2.59a14.91,14.91,0,0,1,0,5.57L85,66.52l-1.78,4.29L78.18,69.4a15.37,15.37,0,0,1-3.94,3.94l1.43,5.07-4.31,1.8-2.59-4.59a14.8,14.8,0,0,1-5.55,0Zm-2.89-2.47,2.37,1,2.49-4.44.43.1a13.86,13.86,0,0,0,5.91,0l.43-.1,2.5,4.43,2.37-1-1.38-4.89.36-.24a14.1,14.1,0,0,0,4.19-4.2l.24-.37,4.89,1.37,1-2.35-4.43-2.49.1-.43a14,14,0,0,0,0-5.93l-.1-.42,4.43-2.5-1-2.37-4.9,1.39-.24-.38a13.63,13.63,0,0,0-4.18-4.17l-.37-.23,1.36-4.91-2.37-1-2.48,4.42L68.9,48A13.86,13.86,0,0,0,63,48l-.43.1-2.5-4.43-2.37,1,1.38,4.89-.36.23A13.76,13.76,0,0,0,54.52,54l-.24.37L49.39,53l-1,2.37,4.43,2.47-.09.43a13.79,13.79,0,0,0,0,5.93l.09.43-4.42,2.5,1,2.37,4.9-1.38.23.37a13.89,13.89,0,0,0,4.18,4.18l.36.24ZM51.24,16H18.72V8.56H28.87V8.14A6.12,6.12,0,0,1,35,2h0a6.13,6.13,0,0,1,6.11,6.11v.42H51.24ZM19.9,14.81H50.05V9.75H39.9V8.14A4.93,4.93,0,0,0,35,3.22h0a4.93,4.93,0,0,0-4.93,4.92V9.75H19.9Z" style="fill:#0f8de8"/></g></g></svg>