<?xml version="1.0" encoding="utf-8"?>
<!-- Generator: Adobe Illustrator 25.0.1, SVG Export Plug-In . SVG Version: 6.00 Build 0)  -->
<svg version="1.0" id="Layer_1" xmlns="http://www.w3.org/2000/svg" xmlns:xlink="http://www.w3.org/1999/xlink" x="0px" y="0px"
	 viewBox="0 0 70 70" style="enable-background:new 0 0 70 70;" xml:space="preserve">
<style type="text/css">
	.st0{fill:#0F8DE8;}
</style>
<g>
	<path class="st0" d="M68.3,50.5H55.1v-4.7h2.5c0.9,0,1.6-0.7,1.6-1.6v-21c0-0.9-0.7-1.6-1.6-1.6c-0.9,0-1.6,0.7-1.6,1.6v19.4H14.2
		V23.2c0-0.9-0.7-1.6-1.6-1.6c-0.9,0-1.6,0.7-1.6,1.6v21c0,0.9,0.7,1.6,1.6,1.6h2.5v4.7H1.7c-0.9,0-1.6,0.7-1.6,1.6v16.2
		c0,0.9,0.7,1.6,1.6,1.6h66.7c0.9,0,1.6-0.7,1.6-1.6V52.1C70,51.2,69.2,50.5,68.3,50.5z M33.5,50.5H18.2v-4.7h15.2L33.5,50.5
		L33.5,50.5z M36.6,45.8h15.2v4.7H36.6V45.8z M66.8,66.7H3.3V53.6h11.8v4.7h-2.5c-0.9,0-1.6,0.7-1.6,1.6c0,0.9,0.7,1.6,1.6,1.6h8.1
		c0.9,0,1.6-0.7,1.6-1.6c0-0.9-0.7-1.6-1.6-1.6h-2.5v-4.7h15.2v4.7h-2.5c-0.9,0-1.6,0.7-1.6,1.6c0,0.9,0.7,1.6,1.6,1.6H39
		c0.9,0,1.6-0.7,1.6-1.6c0-0.9-0.7-1.6-1.6-1.6h-2.5v-4.7h15.2v4.7h-2.5c-0.9,0-1.6,0.7-1.6,1.6c0,0.9,0.7,1.6,1.6,1.6h8.1
		c0.9,0,1.6-0.7,1.6-1.6c0-0.9-0.7-1.6-1.6-1.6h-2.5v-4.7h11.8v13.1H66.8z"/>
	<path class="st0" d="M2.6,19.5L35.1,3.4l32.5,16.1c0.2,0.1,0.5,0.2,0.7,0.2c0.6,0,1.1-0.3,1.4-0.9c0.4-0.8,0.1-1.7-0.7-2.1
		L35.8,0.2c-0.4-0.2-1-0.2-1.4,0L1.2,16.6c-0.8,0.4-1.1,1.3-0.7,2.1C0.8,19.5,1.8,19.8,2.6,19.5z"/>
	<path class="st0" d="M29.5,21.6c-0.9,0-1.6,0.7-1.6,1.6v12.9c0,0.9,0.7,1.6,1.6,1.6h11c0.9,0,1.6-0.7,1.6-1.6V23.2
		c0-0.9-0.7-1.6-1.6-1.6H29.5z M39,34.6h-7.9v-9.8H39V34.6z"/>
</g>
</svg>
