<svg id="Layer_1" data-name="Layer 1" xmlns="http://www.w3.org/2000/svg" viewBox="0 0 90 90"><g id="Group_6285" data-name="Group 6285"><g id="Icon_feather-user" data-name="Icon feather-user"><path d="M83.8,90a2,2,0,0,1-2-2V78.47A17.3,17.3,0,0,0,64.4,61.31H25.6A17.3,17.3,0,0,0,8.2,78.47V88a2,2,0,0,1-4,0V78.47a21.27,21.27,0,0,1,21.4-21.1H64.4a21.27,21.27,0,0,1,21.4,21.1V88A2,2,0,0,1,83.8,90Z" style="fill:#0f8de8"/><path d="M45,42.19A21.27,21.27,0,0,1,23.6,21.1a21.4,21.4,0,0,1,42.8,0A21.27,21.27,0,0,1,45,42.19ZM45,3.94A17.3,17.3,0,0,0,27.6,21.1a17.4,17.4,0,0,0,34.8,0A17.3,17.3,0,0,0,45,3.94Z" style="fill:#0f8de8"/></g></g></svg>