<svg id="Layer_1" data-name="Layer 1" xmlns="http://www.w3.org/2000/svg" viewBox="0 0 70 70"><g id="Group_6247" data-name="Group 6247"><path d="M35,68a114.85,114.85,0,0,1-13.28-.8l.41-3A109.64,109.64,0,0,0,35,65a112.32,112.32,0,0,0,12.93-.75l.4,3A113.14,113.14,0,0,1,35,68Z" style="fill:#0f8de8"/><path d="M15.74,65.86A64,64,0,0,1,.84,60.48L0,60.06V9.7l.84-.42A64.91,64.91,0,0,1,15.75,3.93l.66,3A61.12,61.12,0,0,0,3,11.6V58.17a61.18,61.18,0,0,0,13.37,4.71Z" style="fill:#0f8de8"/><path d="M47.9,5.63A109.68,109.68,0,0,0,35,4.85,112.28,112.28,0,0,0,22.1,5.6l-.4-3A113.14,113.14,0,0,1,35,1.8a114.68,114.68,0,0,1,13.27.8Z" style="fill:#0f8de8"/><path d="M54.25,65.89l-.65-3A61.72,61.72,0,0,0,67,58.23V11.65A61.15,61.15,0,0,0,53.59,7l.67-3a64.44,64.44,0,0,1,14.9,5.37l.84.42V60.12l-.84.42A64.45,64.45,0,0,1,54.25,65.89Z" style="fill:#0f8de8"/><path d="M35,49.44c-3.72,0-9.23-.11-13.18-.32l.17-3c3.89.21,9.34.31,13,.32s9.18-.09,13-.3l.16,3C44,49.36,38.47,49.44,35,49.44Z" style="fill:#0f8de8"/><path d="M15.93,48.57A131.66,131.66,0,0,1,1.21,46.42L0,46.17V23.58l1.21-.25a132.63,132.63,0,0,1,14.73-2.12l.27,3C11.39,24.7,7,25.31,3,26.07V43.68a132.52,132.52,0,0,0,13.18,1.85Z" style="fill:#0f8de8"/><path d="M48,23.75c-3.91-.22-9.35-.32-13-.32h-.18c-3.64,0-9,.09-12.85.3l-.16-3.05c4-.21,9.51-.3,13.19-.3s9.21.1,13.17.32Z" style="fill:#0f8de8"/><path d="M54.06,48.6l-.28-3C58.59,45.11,63,44.5,67,43.74V26.14c-3.95-.77-8.37-1.39-13.18-1.85l.29-3a137.1,137.1,0,0,1,14.72,2.14l1.21.26V46.24l-1.21.25A134.52,134.52,0,0,1,54.06,48.6Z" style="fill:#0f8de8"/><path d="M55.25,70H46.6V0h8.65Zm-5.62-3h2.59V3.05H49.63Z" style="fill:#0f8de8"/><path d="M23.46,70H14.8V0h8.66Zm-5.62-3h2.58V3.05H17.84Z" style="fill:#0f8de8"/></g></svg>