<?xml version="1.0" encoding="utf-8"?>
<!-- Generator: Adobe Illustrator 25.0.0, SVG Export Plug-In . SVG Version: 6.00 Build 0)  -->
<svg version="1.1" id="Layer_1" xmlns="http://www.w3.org/2000/svg" xmlns:xlink="http://www.w3.org/1999/xlink" x="0px" y="0px"
	 viewBox="0 0 70 70" style="enable-background:new 0 0 70 70;" xml:space="preserve">
<style type="text/css">
	.st0{fill:#0F8DE8;}
	.st1{fill:none;stroke:#0F8DE8;stroke-width:3;stroke-miterlimit:10;}
</style>
<g>
	<g id="Group_3288" transform="translate(6.945 33.845)">
		<path id="Path_5653" class="st0" d="M21.7,27.4c-0.3,0-0.6-0.1-0.8-0.2c-6.5-3.6-9.5-9.3-8.8-16.5c0.4-3.4,1.4-6.6,3.1-9.6
			c0.5-0.7,1.4-1,2.1-0.6c0.7,0.3,1,1.1,0.7,1.7c0,0.1,0,0.1-0.1,0.2c-1.4,2.7-2.4,5.6-2.7,8.6c-0.6,6.1,1.8,10.7,7.3,13.7
			c0.7,0.3,0.9,1.1,0.6,1.8c0,0.1-0.1,0.1-0.1,0.2C22.7,27.1,22.2,27.4,21.7,27.4z"/>
	</g>
	<path id="Path_5654" class="st0" d="M54.6,34.4c-2.1-4.7-4.4-9.3-7-13.7c-5-8.8-9.8-16.1-10-16.4L35,0.4l-2.6,3.9
		c-0.2,0.3-5.1,7.6-10,16.4c-2.6,4.4-4.9,9-7,13.7c-2.3,5.2-3.4,9.2-3.4,12.2c0,12.7,10.3,23,23,23c12.7,0,23-10.3,23-23l0,0
		C58,43.6,56.9,39.6,54.6,34.4z M35,66.4c-11,0-19.8-8.9-19.8-19.8c0,0,0,0,0,0C15.2,35.6,35,6.1,35,6.1s19.8,29.6,19.8,40.5
		C54.8,57.6,46,66.4,35,66.4C35,66.4,35,66.4,35,66.4L35,66.4z"/>
</g>
</svg>
